<?xml version="1.0" encoding="UTF-8" standalone="no"?>
<svg
   xmlns:dc="http://purl.org/dc/elements/1.1/"
   xmlns:cc="http://creativecommons.org/ns#"
   xmlns:rdf="http://www.w3.org/1999/02/22-rdf-syntax-ns#"
   xmlns:svg="http://www.w3.org/2000/svg"
   xmlns="http://www.w3.org/2000/svg"
   xmlns:xlink="http://www.w3.org/1999/xlink"
   xmlns:sodipodi="http://sodipodi.sourceforge.net/DTD/sodipodi-0.dtd"
   xmlns:inkscape="http://www.inkscape.org/namespaces/inkscape"
   version="1.1"
   id="svg3336"
   viewBox="0 0 522 436"
   height="436"
   width="522"
   inkscape:version="0.91 r13725"
   sodipodi:docname="blackbody.svg">
  <sodipodi:namedview
     pagecolor="#ffffff"
     bordercolor="#666666"
     borderopacity="1"
     objecttolerance="10"
     gridtolerance="10"
     guidetolerance="10"
     inkscape:pageopacity="0"
     inkscape:pageshadow="2"
     inkscape:window-width="1920"
     inkscape:window-height="1026"
     id="namedview154"
     showgrid="false"
     inkscape:zoom="0.5412844"
     inkscape:cx="-135.60169"
     inkscape:cy="160.4321"
     inkscape:window-x="0"
     inkscape:window-y="0"
     inkscape:window-maximized="1"
     inkscape:current-layer="svg3336" />
  <metadata
     id="metadata4061">
    <rdf:RDF>
      <cc:Work
         rdf:about="">
        <dc:format>image/svg+xml</dc:format>
        <dc:type
           rdf:resource="http://purl.org/dc/dcmitype/StillImage" />
        <dc:title></dc:title>
      </cc:Work>
    </rdf:RDF>
  </metadata>
  <desc
     id="desc3338">Produced by GNUPLOT 4.4 patchlevel 0, background spectrum based on http://commons.wikimedia.org/wiki/File:Linear_visible_spectrum.svg</desc>
  <defs
     id="defs3340">
    <marker
       orient="auto"
       refY="0"
       refX="0"
       id="marker5442"
       style="overflow:visible">
      <path
         id="path5444"
         d="M 0,0 5,-5 -12.5,0 5,5 0,0 Z"
         style="fill:#000000;fill-opacity:1;fill-rule:evenodd;stroke:#000000;stroke-width:1pt;stroke-opacity:1"
         transform="matrix(-0.2,0,0,-0.2,-1.2,0)" />
    </marker>
    <marker
       style="overflow:visible"
       id="Arrow1Mend"
       refX="0"
       refY="0"
       orient="auto">
      <path
         transform="matrix(-0.4,0,0,-0.4,-4,0)"
         style="fill:#000000;fill-opacity:1;fill-rule:evenodd;stroke:#000000;stroke-width:1pt;stroke-opacity:1"
         d="M 0,0 5,-5 -12.5,0 5,5 0,0 Z"
         id="path4517" />
    </marker>
    <marker
       style="overflow:visible"
       id="Arrow2Mend"
       refX="0"
       refY="0"
       orient="auto">
      <path
         transform="scale(-0.6,-0.6)"
         d="M 8.7185878,4.0337352 -2.2072895,0.01601326 8.7185884,-4.0017078 c -1.7454984,2.3720609 -1.7354408,5.6174519 -6e-7,8.035443 z"
         style="fill:#000000;fill-opacity:1;fill-rule:evenodd;stroke:#000000;stroke-width:0.625;stroke-linejoin:round;stroke-opacity:1"
         id="path4535" />
    </marker>
    <marker
       style="overflow:visible"
       id="marker5012"
       refX="0"
       refY="0"
       orient="auto">
      <path
         transform="matrix(-0.2,0,0,-0.2,-1.2,0)"
         style="fill:#000000;fill-opacity:1;fill-rule:evenodd;stroke:#000000;stroke-width:1pt;stroke-opacity:1"
         d="M 0,0 5,-5 -12.5,0 5,5 0,0 Z"
         id="path5014" />
    </marker>
    <marker
       style="overflow:visible"
       id="Arrow1Sstart"
       refX="0"
       refY="0"
       orient="auto">
      <path
         transform="matrix(0.2,0,0,0.2,1.2,0)"
         style="fill:#000000;fill-opacity:1;fill-rule:evenodd;stroke:#000000;stroke-width:1pt;stroke-opacity:1"
         d="M 0,0 5,-5 -12.5,0 5,5 0,0 Z"
         id="path4520" />
    </marker>
    <marker
       style="overflow:visible"
       id="Arrow1Send"
       refX="0"
       refY="0"
       orient="auto">
      <path
         transform="matrix(-0.2,0,0,-0.2,-1.2,0)"
         style="fill-rule:evenodd;stroke:#000000;stroke-width:1pt"
         d="M 0,0 5,-5 -12.5,0 5,5 0,0 Z"
         id="path4523" />
    </marker>
    <marker
       style="overflow:visible"
       id="Arrow2Sstart"
       refX="0"
       refY="0"
       orient="auto">
      <path
         transform="matrix(0.3,0,0,0.3,-0.69,0)"
         d="M 8.7185878,4.0337352 -2.2072895,0.01601326 8.7185884,-4.0017078 c -1.7454984,2.3720609 -1.7354408,5.6174519 -6e-7,8.035443 z"
         style="fill:#000000;fill-opacity:1;fill-rule:evenodd;stroke:#000000;stroke-width:0.625;stroke-linejoin:round;stroke-opacity:1"
         id="path4538" />
    </marker>
    <marker
       style="overflow:visible"
       id="Arrow1Lstart"
       refX="0"
       refY="0"
       orient="auto">
      <path
         transform="matrix(0.8,0,0,0.8,10,0)"
         style="fill:#000000;fill-opacity:1;fill-rule:evenodd;stroke:#000000;stroke-width:1pt;stroke-opacity:1"
         d="M 0,0 5,-5 -12.5,0 5,5 0,0 Z"
         id="path4508" />
    </marker>
    <circle
       style="stroke-width:0.5"
       cy="0"
       cx="0"
       r="0.5"
       id="gpDot" />
    <path
       style="stroke:currentColor;stroke-width:0.222"
       d="M -1,0 1,0 M 0,-1 0,1"
       id="gpPt0" />
    <path
       style="stroke:currentColor;stroke-width:0.222"
       d="M -1,-1 1,1 M 1,-1 -1,1"
       id="gpPt1" />
    <path
       style="stroke:currentColor;stroke-width:0.222"
       d="M -1,0 1,0 M 0,-1 0,1 m -1,-2 2,2 m -2,0 2,-2"
       id="gpPt2" />
    <rect
       style="stroke:currentColor;stroke-width:0.222"
       height="2"
       width="2"
       y="-1"
       x="-1"
       id="gpPt3" />
    <rect
       style="fill:currentColor;stroke:currentColor;stroke-width:0.222"
       height="2"
       width="2"
       y="-1"
       x="-1"
       id="gpPt4" />
    <circle
       style="stroke:currentColor;stroke-width:0.222"
       r="1"
       cy="0"
       cx="0"
       id="gpPt5" />
    <use
       height="100%"
       width="100%"
       y="0"
       x="0"
       style="fill:currentColor;stroke:none"
       id="gpPt6"
       xlink:href="#gpPt5" />
    <path
       style="stroke:currentColor;stroke-width:0.222"
       d="m 0,-1.33 -1.33,2 2.66,0 z"
       id="gpPt7" />
    <use
       height="100%"
       width="100%"
       y="0"
       x="0"
       style="fill:currentColor;stroke:none"
       id="gpPt8"
       xlink:href="#gpPt7" />
    <use
       height="100%"
       width="100%"
       y="0"
       x="0"
       style="stroke:currentColor"
       transform="scale(-1,-1)"
       id="gpPt9"
       xlink:href="#gpPt7" />
    <use
       height="100%"
       width="100%"
       y="0"
       x="0"
       style="fill:currentColor;stroke:none"
       id="gpPt10"
       xlink:href="#gpPt9" />
    <use
       height="100%"
       width="100%"
       y="0"
       x="0"
       style="stroke:currentColor"
       transform="matrix(0.70710678,0.70710678,-0.70710678,0.70710678,0,0)"
       id="gpPt11"
       xlink:href="#gpPt3" />
    <use
       height="100%"
       width="100%"
       y="0"
       x="0"
       style="fill:currentColor;stroke:none"
       id="gpPt12"
       xlink:href="#gpPt11" />
    <linearGradient
       gradientUnits="userSpaceOnUse"
       gradientTransform="matrix(0.39618433,0,0,2.5240776,-68,3)"
       y2="7.1313181"
       x2="519.95996"
       y1="7.1313181"
       x1="363.46716"
       id="grad_spectrum">
      <stop
         id="stop3357"
         stop-color="#020005"
         offset="0.000000" />
      <stop
         id="stop3359"
         stop-color="#020006"
         offset="0.013514" />
      <stop
         id="stop3361"
         stop-color="#030008"
         offset="0.027027" />
      <stop
         id="stop3363"
         stop-color="#04000a"
         offset="0.040541" />
      <stop
         id="stop3365"
         stop-color="#06000d"
         offset="0.054054" />
      <stop
         id="stop3367"
         stop-color="#080110"
         offset="0.067568" />
      <stop
         id="stop3369"
         stop-color="#0c0117"
         offset="0.081081" />
      <stop
         id="stop3371"
         stop-color="#11021f"
         offset="0.094595" />
      <stop
         id="stop3373"
         stop-color="#17032a"
         offset="0.108108" />
      <stop
         id="stop3375"
         stop-color="#1f053a"
         offset="0.121622" />
      <stop
         id="stop3377"
         stop-color="#25084b"
         offset="0.135135" />
      <stop
         id="stop3379"
         stop-color="#290a5c"
         offset="0.148649" />
      <stop
         id="stop3381"
         stop-color="#2b0e6f"
         offset="0.162162" />
      <stop
         id="stop3383"
         stop-color="#291380"
         offset="0.175676" />
      <stop
         id="stop3385"
         stop-color="#1f237b"
         offset="0.189189" />
      <stop
         id="stop3387"
         stop-color="#132e74"
         offset="0.202703" />
      <stop
         id="stop3389"
         stop-color="#09376c"
         offset="0.216216" />
      <stop
         id="stop3391"
         stop-color="#0a3e66"
         offset="0.229730" />
      <stop
         id="stop3393"
         stop-color="#0c4667"
         offset="0.243243" />
      <stop
         id="stop3395"
         stop-color="#0e4f6a"
         offset="0.256757" />
      <stop
         id="stop3397"
         stop-color="#10596c"
         offset="0.270270" />
      <stop
         id="stop3399"
         stop-color="#11636d"
         offset="0.283784" />
      <stop
         id="stop3401"
         stop-color="#146e6f"
         offset="0.297297" />
      <stop
         id="stop3403"
         stop-color="#177970"
         offset="0.310811" />
      <stop
         id="stop3405"
         stop-color="#178672"
         offset="0.324324" />
      <stop
         id="stop3407"
         stop-color="#1a9574"
         offset="0.337838" />
      <stop
         id="stop3409"
         stop-color="#1da375"
         offset="0.351351" />
      <stop
         id="stop3411"
         stop-color="#1db273"
         offset="0.364865" />
      <stop
         id="stop3413"
         stop-color="#20c070"
         offset="0.378378" />
      <stop
         id="stop3415"
         stop-color="#22cb6b"
         offset="0.391892" />
      <stop
         id="stop3417"
         stop-color="#21d662"
         offset="0.405405" />
      <stop
         id="stop3419"
         stop-color="#23e054"
         offset="0.418919" />
      <stop
         id="stop3421"
         stop-color="#36e842"
         offset="0.432432" />
      <stop
         id="stop3423"
         stop-color="#50ed28"
         offset="0.445946" />
      <stop
         id="stop3425"
         stop-color="#73eb22"
         offset="0.459459" />
      <stop
         id="stop3427"
         stop-color="#8fe722"
         offset="0.472973" />
      <stop
         id="stop3429"
         stop-color="#a5e221"
         offset="0.486486" />
      <stop
         id="stop3431"
         stop-color="#b9dc22"
         offset="0.500000" />
      <stop
         id="stop3433"
         stop-color="#cbd621"
         offset="0.513514" />
      <stop
         id="stop3435"
         stop-color="#dcce20"
         offset="0.527027" />
      <stop
         id="stop3437"
         stop-color="#ecc420"
         offset="0.540541" />
      <stop
         id="stop3439"
         stop-color="#f2b735"
         offset="0.554054" />
      <stop
         id="stop3441"
         stop-color="#f5ab42"
         offset="0.567568" />
      <stop
         id="stop3443"
         stop-color="#f69f49"
         offset="0.581081" />
      <stop
         id="stop3445"
         stop-color="#f7944b"
         offset="0.594595" />
      <stop
         id="stop3447"
         stop-color="#f98848"
         offset="0.608108" />
      <stop
         id="stop3449"
         stop-color="#fa7b42"
         offset="0.621622" />
      <stop
         id="stop3451"
         stop-color="#fb6c39"
         offset="0.635135" />
      <stop
         id="stop3453"
         stop-color="#fd5b2e"
         offset="0.648649" />
      <stop
         id="stop3455"
         stop-color="#fc471f"
         offset="0.662162" />
      <stop
         id="stop3457"
         stop-color="#f7300f"
         offset="0.675676" />
      <stop
         id="stop3459"
         stop-color="#ea220d"
         offset="0.689189" />
      <stop
         id="stop3461"
         stop-color="#d42215"
         offset="0.702703" />
      <stop
         id="stop3463"
         stop-color="#bf2318"
         offset="0.716216" />
      <stop
         id="stop3465"
         stop-color="#a92309"
         offset="0.729730" />
      <stop
         id="stop3467"
         stop-color="#981f07"
         offset="0.743243" />
      <stop
         id="stop3469"
         stop-color="#871b06"
         offset="0.756757" />
      <stop
         id="stop3471"
         stop-color="#771805"
         offset="0.770270" />
      <stop
         id="stop3473"
         stop-color="#671504"
         offset="0.783784" />
      <stop
         id="stop3475"
         stop-color="#591303"
         offset="0.797297" />
      <stop
         id="stop3477"
         stop-color="#4d1103"
         offset="0.810811" />
      <stop
         id="stop3479"
         stop-color="#420e02"
         offset="0.824324" />
      <stop
         id="stop3481"
         stop-color="#370c01"
         offset="0.837838" />
      <stop
         id="stop3483"
         stop-color="#2e0a01"
         offset="0.851351" />
      <stop
         id="stop3485"
         stop-color="#270801"
         offset="0.864865" />
      <stop
         id="stop3487"
         stop-color="#210600"
         offset="0.878378" />
      <stop
         id="stop3489"
         stop-color="#1e0400"
         offset="0.891892" />
      <stop
         id="stop3491"
         stop-color="#1a0300"
         offset="0.905405" />
      <stop
         id="stop3493"
         stop-color="#170200"
         offset="0.918919" />
      <stop
         id="stop3495"
         stop-color="#130100"
         offset="0.932432" />
      <stop
         id="stop3497"
         stop-color="#100100"
         offset="0.945946" />
      <stop
         id="stop3499"
         stop-color="#0c0100"
         offset="0.959459" />
      <stop
         id="stop3501"
         stop-color="#080100"
         offset="0.972973" />
      <stop
         id="stop3503"
         stop-color="#060100"
         offset="0.986486" />
      <stop
         id="stop3505"
         stop-color="#040100"
         offset="1.000000" />
    </linearGradient>
  </defs>
  <rect
     style="fill:url(#grad_spectrum);fill-opacity:0.25;stroke-width:5;stroke-miterlimit:4;stroke-dasharray:none"
     id="rect3507"
     height="395"
     width="62"
     y="21"
     x="76" />
  <g
     transform="translate(-72,0)"
     id="g3517"
     style="color:#ffffff;fill:none;stroke:currentColor;stroke-width:5;stroke-linecap:butt;stroke-linejoin:miter;stroke-miterlimit:4;stroke-dasharray:none" />
  <g
     transform="translate(-72,0)"
     id="g3519"
     style="color:#000000;fill:none;stroke:currentColor;stroke-width:5;stroke-linecap:butt;stroke-linejoin:miter;stroke-miterlimit:4;stroke-dasharray:none" />
  <g
     transform="translate(507.1,444.9)"
     style="color:#000000;font-size:15px;font-family:Arial;text-anchor:middle;fill:#000000;stroke:none;stroke-width:5;stroke-linecap:butt;stroke-linejoin:miter;stroke-miterlimit:4;stroke-dasharray:none"
     id="g3725">
    <text
       id="text3727"
       style="stroke-width:5;stroke-miterlimit:4;stroke-dasharray:none">
      <tspan
         id="tspan3729"
         style="stroke-width:5;stroke-miterlimit:4;stroke-dasharray:none" />
    </text>
  </g>
  <g
     transform="matrix(0,-1,1,0,-46.1,215.1)"
     style="color:#000000;font-size:15px;font-family:Arial;text-anchor:middle;fill:#000000;stroke:none;stroke-width:5;stroke-linecap:butt;stroke-linejoin:miter;stroke-miterlimit:4;stroke-dasharray:none"
     id="g3733" />
  <g
     transform="translate(258,471.9)"
     style="color:#000000;font-size:15px;font-family:Arial;text-anchor:middle;fill:#000000;stroke:none;stroke-width:5;stroke-linecap:butt;stroke-linejoin:miter;stroke-miterlimit:4;stroke-dasharray:none"
     id="g3739">
    <text
       id="text3741"
       style="stroke-width:5;stroke-miterlimit:4;stroke-dasharray:none">
      <tspan
         id="tspan3743"
         style="stroke-width:5;stroke-miterlimit:4;stroke-dasharray:none" />
    </text>
  </g>
  <g
     transform="translate(266.3,127)"
     style="color:#000000;font-size:15px;font-family:Arial;text-anchor:start;fill:#000000;stroke:none;stroke-width:5;stroke-linecap:butt;stroke-linejoin:miter;stroke-miterlimit:4;stroke-dasharray:none"
     id="g3763">
    <text
       id="text3765"
       style="stroke-width:5;stroke-miterlimit:4;stroke-dasharray:none">
      <tspan
         id="tspan3767"
         style="stroke-width:5;stroke-miterlimit:4;stroke-dasharray:none" />
    </text>
  </g>
  <a
     transform="translate(-72,0)"
     style="stroke-width:5;stroke-miterlimit:4;stroke-dasharray:none"
     id="a3769"
     xlink:title="Plot #1">
    <g
       id="g3771"
       style="color:#ffffff;fill:none;stroke:currentColor;stroke-width:5;stroke-linecap:butt;stroke-linejoin:miter;stroke-miterlimit:4;stroke-dasharray:none" />
    <g
       id="g3773"
       style="color:#ff0000;fill:none;stroke:currentColor;stroke-width:5;stroke-linecap:butt;stroke-linejoin:miter;stroke-miterlimit:4;stroke-dasharray:none">
      <path
         style="stroke-width:5;stroke-miterlimit:4;stroke-dasharray:none"
         id="path3775"
         d="m 85.9,413.4 5.1,0 5,0 5,0 5.1,0 5,0 5,0 5.1,0 5,0 5,-0.2 5.1,-0.2 5,-0.5 5,-0.8 5.1,-1.1 5,-1.4 5,-1.7 5,-1.9 5.1,-2 5,-2.1 5,-2.1 5.1,-2 5,-1.9 5,-1.7 5.1,-1.5 5,-1.3 5,-1.1 5.1,-0.9 5,-0.7 5,-0.5 5.1,-0.4 5,-0.2 5,0 5.1,0.1 5,0.1 5,0.3 5.1,0.4 5,0.4 5,0.4 5.1,0.6 5,0.5 5,0.6 5.1,0.6 5,0.6 5,0.6 5.1,0.6 5,0.6 5,0.7 5.1,0.6 5,0.6 5,0.6 5,0.5 5.1,0.6 5,0.6 5,0.5 5.1,0.5 5,0.5 5,0.5 5.1,0.5 5,0.5 5,0.4 5.1,0.4 5,0.5 5,0.4 5.1,0.3 5,0.4 5,0.4 5.1,0.3 5,0.4 5,0.3 5.1,0.3 5,0.3 5,0.3 5.1,0.2 5,0.3 5,0.2 5.1,0.3 5,0.2 5,0.2 5.1,0.3 5,0.2 5,0.2 5.1,0.2 5,0.1 5,0.2 5,0.2 5.1,0.2 5,0.1 5,0.2 5.1,0.1 5,0.2 5,0.1 5.1,0.1 5,0.2 5,0.1 5.1,0.1 5,0.1 5,0.1 5.1,0.1 5,0.1" />
    </g>
  </a>
  <a
     transform="translate(-72,0)"
     style="stroke-width:5;stroke-miterlimit:4;stroke-dasharray:none"
     id="a3777"
     xlink:title="Plot #2">
    <g
       id="g3779"
       style="color:#008000;fill:none;stroke:currentColor;stroke-width:5;stroke-linecap:butt;stroke-linejoin:miter;stroke-miterlimit:4;stroke-dasharray:none">
      <path
         style="stroke-width:5;stroke-miterlimit:4;stroke-dasharray:none"
         id="path3781"
         d="m 85.9,413.4 5.1,0 5,0 5,0 5.1,0 5,0 5,-0.3 5.1,-1 5,-2.6 5,-4.6 5.1,-7.1 5,-9.2 5,-10.8 5.1,-11.7 5,-11.7 5,-11.1 5,-10 5.1,-8.7 5,-7.2 5,-5.6 5.1,-4.1 5,-2.8 5,-1.5 5.1,-0.4 5,0.5 5,1.2 5.1,1.9 5,2.4 5,2.8 5.1,3 5,3.2 5,3.4 5.1,3.5 5,3.5 5,3.5 5.1,3.4 5,3.4 5,3.3 5.1,3.2 5,3.1 5,3 5.1,2.8 5,2.8 5,2.6 5.1,2.5 5,2.4 5,2.3 5.1,2.2 5,2.1 5,2 5,1.8 5.1,1.8 5,1.7 5,1.6 5.1,1.5 5,1.5 5,1.4 5.1,1.3 5,1.2 5,1.2 5.1,1.1 5,1.1 5,1 5.1,0.9 5,0.9 5,0.9 5.1,0.8 5,0.8 5,0.7 5.1,0.7 5,0.7 5,0.6 5.1,0.7 5,0.5 5,0.6 5.1,0.5 5,0.5 5,0.5 5.1,0.4 5,0.5 5,0.4 5.1,0.4 5,0.4 5,0.3 5,0.4 5.1,0.3 5,0.3 5,0.3 5.1,0.3 5,0.3 5,0.2 5.1,0.3 5,0.2 5,0.3 5.1,0.2 5,0.2 5,0.2 5.1,0.2 5,0.2" />
    </g>
  </a>
  <a
     transform="translate(-72,0)"
     style="stroke-width:5;stroke-miterlimit:4;stroke-dasharray:none"
     id="a3783"
     xlink:title="Plot #3">
    <g
       id="g3785"
       style="color:#0000ff;fill:none;stroke:currentColor;stroke-width:5;stroke-linecap:butt;stroke-linejoin:miter;stroke-miterlimit:4;stroke-dasharray:none">
      <path
         style="stroke-width:5;stroke-miterlimit:4;stroke-dasharray:none"
         id="path3787"
         d="m 85.9,413.4 5.1,0 5,0 5,0 5.1,-0.2 5,-1.9 5,-7.2 5.1,-16.7 5,-28 5,-37.8 5.1,-43.5 5,-44.6 5,-41.9 5.1,-36.5 5,-29.6 5,-22.2 5,-15.1 5.1,-8.6 5,-3.2 5,1.5 5.1,5.1 5,8 5,10 5.1,11.5 5,12.5 5,13 5.1,13.3 5,13.3 5,13.1 5.1,12.7 5,12.4 5,11.8 5.1,11.4 5,10.8 5,10.2 5.1,9.7 5,9.1 5,8.6 5.1,8 5,7.6 5,7.1 5.1,6.7 5,6.2 5,5.9 5.1,5.5 5,5.1 5,4.8 5.1,4.6 5,4.2 5,3.9 5,3.8 5.1,3.4 5,3.3 5,3.1 5.1,2.9 5,2.7 5,2.5 5.1,2.4 5,2.2 5,2.2 5.1,1.9 5,1.9 5,1.8 5.1,1.7 5,1.5 5,1.5 5.1,1.4 5,1.3 5,1.3 5.1,1.2 5,1.1 5,1.1 5.1,1 5,0.9 5,0.9 5.1,0.9 5,0.8 5,0.8 5.1,0.7 5,0.7 5,0.7 5.1,0.6 5,0.6 5,0.6 5,0.5 5.1,0.5 5,0.5 5,0.5 5.1,0.4 5,0.5 5,0.4 5.1,0.4 5,0.3 5,0.4 5.1,0.3 5,0.4 5,0.3 5.1,0.3 5,0.2" />
    </g>
  </a>
  <g
     transform="translate(-72,0)"
     id="g3789"
     style="color:#ffffff;fill:none;stroke:currentColor;stroke-width:5;stroke-linecap:butt;stroke-linejoin:miter;stroke-miterlimit:4;stroke-dasharray:none" />
  <g
     transform="translate(-72,0)"
     id="g3791"
     style="color:#000000;fill:none;stroke:currentColor;stroke-width:5;stroke-linecap:butt;stroke-linejoin:miter;stroke-miterlimit:4;stroke-dasharray:none" />
  <g
     transform="translate(-72,0)"
     id="g3795"
     style="color:#000000;fill:none;stroke:currentColor;stroke-width:5;stroke-linecap:butt;stroke-linejoin:miter;stroke-miterlimit:4;stroke-dasharray:none" />
  <g
     transform="translate(-72,0)"
     id="g4053"
     style="color:#ffffff;fill:none;stroke:#000000;stroke-width:5;stroke-linecap:butt;stroke-linejoin:miter;stroke-miterlimit:4;stroke-dasharray:none" />
  <flowRoot
     transform="translate(-72,0)"
     style="font-style:normal;font-weight:normal;font-size:15px;line-height:125%;font-family:sans-serif;letter-spacing:0px;word-spacing:0px;fill:#000000;fill-opacity:1;stroke:none;stroke-width:5;stroke-linecap:butt;stroke-linejoin:miter;stroke-miterlimit:4;stroke-dasharray:none;stroke-opacity:1"
     id="flowRoot4071"
     xml:space="preserve"><flowRegion
       id="flowRegion4073"><rect
         style="stroke-width:5;stroke-miterlimit:4;stroke-dasharray:none"
         y="85.970146"
         x="24.179104"
         height="26.865671"
         width="0"
         id="rect4075" /></flowRegion><flowPara
       id="flowPara4077" /></flowRoot>  <path
     id="path5098"
     d="m 16.5,418 0,-393.320447"
     style="fill:none;fill-rule:evenodd;stroke:#000000;stroke-width:10;stroke-linecap:butt;stroke-linejoin:miter;stroke-miterlimit:4;stroke-dasharray:none;stroke-opacity:1;marker-end:url(#marker5012)" />
  <path
     style="fill:none;fill-rule:evenodd;stroke:#000000;stroke-width:10;stroke-linecap:butt;stroke-linejoin:miter;stroke-miterlimit:4;stroke-dasharray:none;stroke-opacity:1;marker-end:url(#marker5442)"
     d="m 11.28971,420.33978 490.00629,0"
     id="path5440" />
</svg>
